<svg width="24" height="24" viewBox="0 0 24 24" fill="none" xmlns="http://www.w3.org/2000/svg">
<path d="M4.98535 20.2544C7.06999 21.8409 10 24 12 24C14 24 16.93 21.8409 19.0147 20.2544C18.6878 20.4901 19.363 19.9893 19.0147 20.2544C20.6496 19.0754 21.969 18.1239 22.5 16C23.1866 13.2535 22.9303 8.62119 22.7023 5.9876C22.5979 4.78187 21.7414 3.7899 20.5796 3.45074C19.119 3.02431 18.1675 2.93448 17 2.49998C15.8801 2.08319 14.5588 1.41543 13.5557 0.874849C12.5872 0.352834 11.4128 0.352833 10.4443 0.874849C9.44123 1.41543 8.11986 2.08319 7 2.49998C5.83254 2.93448 4.88104 3.02431 3.42038 3.45074C2.25863 3.7899 1.40212 4.78187 1.29771 5.9876C1.06966 8.62119 0.813379 13.2535 1.5 16C2.03098 18.1239 3.35045 19.0754 4.98535 20.2544C5.31222 20.4901 4.63705 19.9893 4.98535 20.2544Z" fill="#FF6347"/>
<path d="M22.123 17.0766C19.7064 18.3626 15.6321 20.4693 13 21.5C11.3598 22.1423 9.70145 22.6163 8.76683 22.8636C9.92688 23.5282 11.0651 24 12 24C14 24 16.93 21.841 19.0146 20.2544C20.3442 19.2957 21.4651 18.4873 22.123 17.0766Z" fill="black" fill-opacity="0.1"/>
<path fill-rule="evenodd" clip-rule="evenodd" d="M9.5521 6.33035C9.65346 6.12939 9.87933 6 10.1296 6H15.1206C15.5898 6 15.8958 6.43496 15.6856 6.80495L14.2659 9.30348H16.3669C16.93 9.30348 17.2116 9.90251 16.8137 10.2527L9.33499 16.8338C8.86323 17.2489 8.07739 16.8216 8.28886 16.265L9.88308 12.0564H7.63191C7.52663 12.0564 7.42303 12.0332 7.3305 11.989C7.23798 11.9449 7.15947 11.881 7.10209 11.8034C7.04472 11.7257 7.01031 11.6366 7.00198 11.5443C6.99365 11.4519 7.01168 11.3592 7.05441 11.2746L9.5521 6.33035Z" fill="#FFEBE7"/>
</svg>
